<svg viewBox="0 0 289 311" fill="none" xmlns="http://www.w3.org/2000/svg">
<g filter="url(#filter0_f_126_106)">
<path d="M130.221 88.0001C134.389 88.0001 137.766 92.046 137.766 97.0389V132.764H122.677V97.0389C122.677 92.046 126.054 88.0001 130.221 88.0001Z" fill="url(#paint0_linear_126_106)"/>
<path d="M160.401 88.0001C164.569 88.0001 167.946 92.046 167.946 97.0389V132.764H152.856V97.0389C152.856 92.046 156.233 88.0001 160.401 88.0001Z" fill="url(#paint1_linear_126_106)"/>
<path d="M88.9041 172.793C88.9041 167.8 92.2813 163.754 96.449 163.754H126.269V181.832H96.449C92.2813 181.832 88.9041 177.786 88.9041 172.793Z" fill="url(#paint2_linear_126_106)"/>
<path d="M88.9041 136.638C88.9041 131.645 92.2813 127.599 96.449 127.599H126.269V145.677H96.449C92.2813 145.677 88.9041 141.631 88.9041 136.638Z" fill="url(#paint3_linear_126_106)"/>
<path d="M159.683 222.292C155.515 222.292 152.138 218.246 152.138 213.253V177.528H167.228V213.253C167.228 218.246 163.85 222.292 159.683 222.292Z" fill="url(#paint4_linear_126_106)"/>
<path d="M129.503 222.292C125.335 222.292 121.958 218.246 121.958 213.253V177.528H137.048V213.253C137.048 218.246 133.671 222.292 129.503 222.292Z" fill="url(#paint5_linear_126_106)"/>
<path d="M201 137.499C201 142.491 197.623 146.537 193.455 146.537H163.635V128.46H193.455C197.623 128.46 201 132.506 201 137.499Z" fill="url(#paint6_linear_126_106)"/>
<path d="M201 173.654C201 178.647 197.623 182.693 193.455 182.693H163.635V164.615H193.455C197.623 164.615 201 168.661 201 173.654Z" fill="url(#paint7_linear_126_106)"/>
</g>
<g filter="url(#filter1_f_126_106)">
<path d="M163.635 132.764H126.269V177.528H163.635V132.764Z" fill="white"/>
</g>
<path d="M122.317 88C126.485 88 129.862 92.046 129.862 97.0389V132.764H114.772V97.0389C114.772 92.046 118.15 88 122.317 88Z" fill="url(#paint8_linear_126_106)"/>
<path d="M152.497 88C156.664 88 160.042 92.046 160.042 97.0389V132.764H144.952V97.0389C144.952 92.046 148.329 88 152.497 88Z" fill="url(#paint9_linear_126_106)"/>
<path d="M80.9999 172.793C80.9999 167.8 84.3771 163.754 88.5448 163.754H118.365V181.832H88.5448C84.3771 181.832 80.9999 177.786 80.9999 172.793Z" fill="url(#paint10_linear_126_106)"/>
<path d="M80.9999 136.638C80.9999 131.645 84.3771 127.599 88.5448 127.599H118.365V145.677H88.5448C84.3771 145.677 80.9999 141.631 80.9999 136.638Z" fill="url(#paint11_linear_126_106)"/>
<path d="M151.778 222.292C147.611 222.292 144.233 218.246 144.233 213.253V177.528H159.323V213.253C159.323 218.246 155.946 222.292 151.778 222.292Z" fill="url(#paint12_linear_126_106)"/>
<path d="M121.599 222.292C117.431 222.292 114.054 218.246 114.054 213.253V177.528H129.144V213.253C129.144 218.246 125.766 222.292 121.599 222.292Z" fill="url(#paint13_linear_126_106)"/>
<path d="M193.096 137.499C193.096 142.491 189.718 146.537 185.551 146.537H155.73V128.46H185.551C189.718 128.46 193.096 132.506 193.096 137.499Z" fill="url(#paint14_linear_126_106)"/>
<path d="M193.096 173.654C193.096 178.647 189.718 182.693 185.551 182.693H155.73V164.615H185.551C189.718 164.615 193.096 168.661 193.096 173.654Z" fill="url(#paint15_linear_126_106)"/>
<g filter="url(#filter2_b_126_106)">
<path d="M163.275 110.382H110.82C104.669 110.382 99.6825 116.356 99.6825 123.725V186.567C99.6825 193.936 104.669 199.91 110.82 199.91H163.275C169.427 199.91 174.413 193.936 174.413 186.567V123.725C174.413 116.356 169.427 110.382 163.275 110.382Z" fill="url(#paint16_linear_126_106)"/>
<path d="M110.82 111.382H163.275C168.713 111.382 173.413 116.731 173.413 123.725V186.567C173.413 193.56 168.713 198.91 163.275 198.91H110.82C105.383 198.91 100.683 193.56 100.683 186.567V123.725C100.683 116.731 105.383 111.382 110.82 111.382Z" stroke="url(#paint17_linear_126_106)" stroke-width="2"/>
</g>
<path d="M155.73 132.764H118.365V177.528H155.73V132.764Z" fill="white"/>
<defs>
<filter id="filter0_f_126_106" x="0.90406" y="6.10352e-05" width="288.096" height="310.292" filterUnits="userSpaceOnUse" color-interpolation-filters="sRGB">
<feFlood flood-opacity="0" result="BackgroundImageFix"/>
<feBlend mode="normal" in="SourceGraphic" in2="BackgroundImageFix" result="shape"/>
<feGaussianBlur stdDeviation="44" result="effect1_foregroundBlur_126_106"/>
</filter>
<filter id="filter1_f_126_106" x="38.2693" y="44.764" width="213.365" height="220.764" filterUnits="userSpaceOnUse" color-interpolation-filters="sRGB">
<feFlood flood-opacity="0" result="BackgroundImageFix"/>
<feBlend mode="normal" in="SourceGraphic" in2="BackgroundImageFix" result="shape"/>
<feGaussianBlur stdDeviation="44" result="effect1_foregroundBlur_126_106"/>
</filter>
<filter id="filter2_b_126_106" x="81.6825" y="92.3819" width="110.731" height="125.528" filterUnits="userSpaceOnUse" color-interpolation-filters="sRGB">
<feFlood flood-opacity="0" result="BackgroundImageFix"/>
<feGaussianBlur in="BackgroundImageFix" stdDeviation="9"/>
<feComposite in2="SourceAlpha" operator="in" result="effect1_backgroundBlur_126_106"/>
<feBlend mode="normal" in="SourceGraphic" in2="effect1_backgroundBlur_126_106" result="shape"/>
</filter>
<linearGradient id="paint0_linear_126_106" x1="101.271" y1="79.4519" x2="225.234" y2="179.497" gradientUnits="userSpaceOnUse">
<stop stop-color="#FF731D"/>
<stop offset="0.875" stop-color="#FF731D"/>
<stop offset="0.942708" stop-color="#FF731D"/>
<stop offset="0.9897" stop-color="#1746A2"/>
<stop offset="0.9898" stop-color="#1746A2"/>
<stop offset="0.9899" stop-color="#FF731D"/>
</linearGradient>
<linearGradient id="paint1_linear_126_106" x1="117.179" y1="62.9151" x2="241.143" y2="162.96" gradientUnits="userSpaceOnUse">
<stop stop-color="#FF731D"/>
<stop offset="0.99" stop-color="#FF731D"/>
</linearGradient>
<linearGradient id="paint2_linear_126_106" x1="67.6346" y1="123.914" x2="191.759" y2="224.094" gradientUnits="userSpaceOnUse">
<stop stop-color="#FF731D"/>
<stop offset="0.99" stop-color="#FF731D"/>
</linearGradient>
<linearGradient id="paint3_linear_126_106" x1="81.4526" y1="103.771" x2="205.582" y2="203.941" gradientUnits="userSpaceOnUse">
<stop stop-color="#FF731D"/>
<stop offset="1" stop-color="#FF731D"/>
</linearGradient>
<linearGradient id="paint4_linear_126_106" x1="82.5449" y1="107.963" x2="206.508" y2="208.008" gradientUnits="userSpaceOnUse">
<stop stop-color="#FF731D"/>
<stop offset="0.99" stop-color="#FF731D"/>
</linearGradient>
<linearGradient id="paint5_linear_126_106" x1="66.6431" y1="124.5" x2="190.607" y2="224.545" gradientUnits="userSpaceOnUse">
<stop stop-color="#FF731D"/>
<stop offset="0.99" stop-color="#FF731D"/>
</linearGradient>
<linearGradient id="paint6_linear_126_106" x1="116.044" y1="63.3368" x2="240.176" y2="163.515" gradientUnits="userSpaceOnUse">
<stop stop-color="#FF731D"/>
<stop offset="0.99" stop-color="#FF731D"/>
</linearGradient>
<linearGradient id="paint7_linear_126_106" x1="102.226" y1="83.4894" x2="226.349" y2="183.661" gradientUnits="userSpaceOnUse">
<stop stop-color="#FF731D"/>
<stop offset="0.99" stop-color="#FF731D"/>
</linearGradient>
<linearGradient id="paint8_linear_126_106" x1="93.3663" y1="79.4518" x2="217.33" y2="179.497" gradientUnits="userSpaceOnUse">
<stop stop-color="#FF731D"/>
<stop offset="0.875" stop-color="#FF731D"/>
<stop offset="0.942708" stop-color="#FF731D"/>
<stop offset="0.9897" stop-color="#1746A2"/>
<stop offset="0.9898" stop-color="#1746A2"/>
<stop offset="0.9899" stop-color="#FF731D"/>
</linearGradient>
<linearGradient id="paint9_linear_126_106" x1="109.275" y1="62.915" x2="233.239" y2="162.96" gradientUnits="userSpaceOnUse">
<stop stop-color="#FF731D"/>
<stop offset="0.99" stop-color="#FF731D"/>
</linearGradient>
<linearGradient id="paint10_linear_126_106" x1="59.7304" y1="123.914" x2="183.855" y2="224.094" gradientUnits="userSpaceOnUse">
<stop stop-color="#FF731D"/>
<stop offset="0.99" stop-color="#FF731D"/>
</linearGradient>
<linearGradient id="paint11_linear_126_106" x1="73.5484" y1="103.771" x2="197.678" y2="203.941" gradientUnits="userSpaceOnUse">
<stop stop-color="#FF731D"/>
<stop offset="1" stop-color="#FF731D"/>
</linearGradient>
<linearGradient id="paint12_linear_126_106" x1="74.6406" y1="107.963" x2="198.604" y2="208.008" gradientUnits="userSpaceOnUse">
<stop stop-color="#FF731D"/>
<stop offset="0.99" stop-color="#FF731D"/>
</linearGradient>
<linearGradient id="paint13_linear_126_106" x1="58.7389" y1="124.5" x2="182.702" y2="224.545" gradientUnits="userSpaceOnUse">
<stop stop-color="#FF731D"/>
<stop offset="0.99" stop-color="#FF731D"/>
</linearGradient>
<linearGradient id="paint14_linear_126_106" x1="108.14" y1="63.3368" x2="232.271" y2="163.515" gradientUnits="userSpaceOnUse">
<stop stop-color="#FF731D"/>
<stop offset="0.99" stop-color="#FF731D"/>
</linearGradient>
<linearGradient id="paint15_linear_126_106" x1="94.3221" y1="83.4893" x2="218.445" y2="183.661" gradientUnits="userSpaceOnUse">
<stop stop-color="#FF731D"/>
<stop offset="0.99" stop-color="#FF731D"/>
</linearGradient>
<linearGradient id="paint16_linear_126_106" x1="103.901" y1="194.855" x2="182.042" y2="129.63" gradientUnits="userSpaceOnUse">
<stop stop-color="white" stop-opacity="0.2"/>
<stop offset="1" stop-color="white" stop-opacity="0.49"/>
</linearGradient>
<linearGradient id="paint17_linear_126_106" x1="104.958" y1="117.423" x2="179.48" y2="183.935" gradientUnits="userSpaceOnUse">
<stop stop-color="white"/>
<stop offset="1" stop-color="white" stop-opacity="0"/>
</linearGradient>
</defs>
</svg>
