<?xml version="1.0" encoding="UTF-8"?>
<!-- Generated by Pixelmator Pro 3.3.1 -->
<svg width="255" height="241" viewBox="0 0 255 241" xmlns="http://www.w3.org/2000/svg" xmlns:xlink="http://www.w3.org/1999/xlink">
    <path id="Path" fill="none" stroke="#ff731d" stroke-width="1.89032" stroke-opacity="0.4" d="M 91.898499 201.509995 L 252.479996 80.858597 L 68.683403 1.999893 L 91.898499 201.509995 Z"/>
    <path id="path1" fill="none" stroke="#ff731d" stroke-width="1.89032" stroke-opacity="0.4" d="M 147.324005 132.580994 L 165.524002 67.282196 L 100.160004 84.34079 L 147.324005 132.580994 Z"/>
    <path id="path2" fill="none" stroke="#ff731d" stroke-width="1.89032" stroke-opacity="0.4" d="M 172.220993 66.444901 L 144.744995 139.112 L 95.895203 79.150101 L 172.220993 66.444901 Z"/>
    <path id="path3" fill="none" stroke="#ff731d" stroke-width="1.89032" stroke-opacity="0.4" d="M 180.981995 65.623703 L 140.779999 146.214005 L 91.503601 71.25351 L 180.981995 65.623703 Z"/>
    <path id="path4" fill="none" stroke="#ff731d" stroke-width="1.89032" stroke-opacity="0.4" d="M 189.837006 64.763306 L 136.332993 153.973999 L 86.318901 63.168701 L 189.837006 64.763306 Z"/>
    <path id="path5" fill="none" stroke="#ff731d" stroke-width="1.89032" stroke-opacity="0.4" d="M 199.585999 65.602798 L 130.169998 162.274994 L 81.731796 53.931 L 199.585999 65.602798 Z"/>
    <path id="path6" fill="none" stroke="#ff731d" stroke-width="1.89032" stroke-opacity="0.4" d="M 209.464996 66.699097 L 123.778 170.612 L 77.287399 44.527603 L 209.464996 66.699097 Z"/>
    <path id="path7" fill="none" stroke="#ff731d" stroke-width="1.89032" stroke-opacity="0.4" d="M 220.636002 69.687698 L 116.763 179.033005 L 74.744102 34.440399 L 220.636002 69.687698 Z"/>
    <path id="path8" fill="none" stroke="#ff731d" stroke-width="1.89032" stroke-opacity="0.4" d="M 231.343002 72.9422 L 108.910004 186.925995 L 72.236 23.893494 L 231.343002 72.9422 Z"/>
    <path id="path9" fill="none" stroke="#ff731d" stroke-width="1.89032" stroke-opacity="0.4" d="M 242.188995 76.822906 L 100.763 194.494995 L 70.471703 13.118393 L 242.188995 76.822906 Z"/>
</svg>
