<svg width="255" height="241" viewBox="0 0 255 241" fill="none" xmlns="http://www.w3.org/2000/svg">
<path d="M91.8985 201.51L252.48 80.8586L68.6834 1.99989L91.8985 201.51Z" stroke="#FF731D" stroke-opacity="0.4" stroke-width="1.89032"/>
<path d="M147.324 132.581L165.524 67.2822L100.16 84.3408L147.324 132.581Z" stroke="#FF731D" stroke-opacity="0.4" stroke-width="1.89032"/>
<path d="M172.221 66.4449L144.745 139.112L95.8952 79.1501L172.221 66.4449Z" stroke="#FF731D" stroke-opacity="0.4" stroke-width="1.89032"/>
<path d="M180.982 65.6237L140.78 146.214L91.5036 71.2535L180.982 65.6237Z" stroke="#FF731D" stroke-opacity="0.4" stroke-width="1.89032"/>
<path d="M189.837 64.7633L136.333 153.974L86.3189 63.1687L189.837 64.7633Z" stroke="#FF731D" stroke-opacity="0.4" stroke-width="1.89032"/>
<path d="M199.586 65.6028L130.17 162.275L81.7318 53.931L199.586 65.6028Z" stroke="#FF731D" stroke-opacity="0.4" stroke-width="1.89032"/>
<path d="M209.465 66.6991L123.778 170.612L77.2874 44.5276L209.465 66.6991Z" stroke="#FF731D" stroke-opacity="0.4" stroke-width="1.89032"/>
<path d="M220.636 69.6877L116.763 179.033L74.7441 34.4404L220.636 69.6877Z" stroke="#FF731D" stroke-opacity="0.4" stroke-width="1.89032"/>
<path d="M231.343 72.9422L108.91 186.926L72.236 23.8935L231.343 72.9422Z" stroke="#FF731D" stroke-opacity="0.4" stroke-width="1.89032"/>
<path d="M242.189 76.8229L100.763 194.495L70.4717 13.1184L242.189 76.8229Z" stroke="#FF731D" stroke-opacity="0.4" stroke-width="1.89032"/>
</svg>
